<svg width="40" height="40" viewBox="0 0 40 40" fill="#0C204D" xmlns="http://www.w3.org/2000/svg">
<rect width="40" height="40" rx="20" fill="#FAFAFB"/>
<path d="M20.6563 25.9797C20.6563 25.7735 20.6563 25.5939 20.6563 25.4077C20.6626 23.9975 20.6501 22.594 20.6813 21.1838C20.7001 20.4721 21.2813 19.92 21.9562 19.8801C22.6687 19.8402 23.1374 20.226 23.2811 20.9909C23.3186 21.1838 23.3374 21.3834 23.3374 21.5829C23.3436 22.9465 23.3436 24.3101 23.3374 25.6737C23.3374 25.9132 23.3936 26.0063 23.6373 25.9997C24.3373 25.9864 25.031 25.9864 25.7309 25.9997C25.9309 25.9997 26.0059 25.9332 25.9996 25.7136C25.9871 25.0485 26.0059 24.3833 25.9934 23.7181C25.9809 22.6472 26.0184 21.563 25.9184 20.4987C25.7997 19.2282 25.1997 18.2371 23.9873 17.8713C22.7624 17.4988 21.6312 17.6717 20.7688 18.8025C20.7501 18.8225 20.7188 18.8358 20.6501 18.8757C20.6501 18.6096 20.6438 18.3835 20.6501 18.1573C20.6563 17.9578 20.5751 17.8846 20.3938 17.8846C19.6752 17.8912 18.9565 17.8912 18.2378 17.8846C18.0378 17.8846 17.9815 17.9844 17.994 18.1706C18.0065 18.4034 18.0253 18.6362 18.019 18.869C18.0128 21.0774 18.0003 23.2791 17.994 25.4875C17.994 25.6471 18.0128 25.8134 18.019 25.9864C18.9002 25.9797 19.7501 25.9797 20.6563 25.9797ZM16.7879 25.993C16.7879 23.2658 16.7879 20.5918 16.7879 17.8779C16.0254 17.8779 15.288 17.8912 14.5568 17.8713C14.2381 17.8646 14.1568 17.9711 14.1568 18.3037C14.1693 20.7249 14.1631 23.1527 14.1631 25.574C14.1631 25.6538 14.1444 25.7403 14.1756 25.8001C14.2068 25.8733 14.2881 25.9731 14.3443 25.9797C15.1505 25.9997 15.9567 25.993 16.7879 25.993ZM15.5317 14C14.8568 14 14.3006 14.3525 14.0944 14.9046C13.7506 15.8558 14.3818 16.7804 15.4067 16.8469C16.2692 16.9001 16.9691 16.2815 16.9879 15.4434C17.0129 14.612 16.3942 14 15.5317 14Z" fill="#0C204D"/>
</svg>
