<svg class="social" width="40" height="40" viewBox="0 0 40 40" fill="#0C204D" xmlns="http://www.w3.org/2000/svg">
	<rect width="40" height="40" rx="20" fill="#FAFAFB"/>
	<path d="M17.1765 14C15.4167 14 14 15.4167 14 17.1765V22.8235C14 24.5833 15.4167 26 17.1765 26H22.8235C24.5833 26 26 24.5833 26 22.8235V17.1765C26 15.4167 24.5833 14 22.8235 14H17.1765ZM23.5294 15.7647C23.9193 15.7647 24.2353 16.0807 24.2353 16.4706C24.2353 16.8604 23.9193 17.1765 23.5294 17.1765C23.1396 17.1765 22.8235 16.8604 22.8235 16.4706C22.8235 16.0807 23.1396 15.7647 23.5294 15.7647ZM20 16.647C21.8476 16.647 23.3529 18.1524 23.3529 20C23.3529 21.8476 21.8476 23.3529 20 23.3529C18.1524 23.3529 16.6471 21.8476 16.6471 20C16.6471 18.1524 18.1524 16.647 20 16.647ZM20 17.6765C18.7131 17.6765 17.6765 18.7131 17.6765 20C17.6765 21.2869 18.7131 22.3235 20 22.3235C21.2869 22.3235 22.3235 21.2869 22.3235 20C22.3235 18.7131 21.2869 17.6765 20 17.6765Z" fill="#0C204D"/>
</svg>
