<svg class="social" width="40" height="40" viewBox="0 0 40 40" fill="#0C204D" xmlns="http://www.w3.org/2000/svg">
	<rect width="40" height="40" rx="20" fill="#FAFAFB"/>
	<path d="M26.6827 15.385C26.4627 15.4871 26.2366 15.5733 26.0056 15.6433C26.2791 15.3194 26.4877 14.9384 26.615 14.5213C26.6435 14.4279 26.6139 14.3256 26.5406 14.2644C26.4673 14.2032 26.3654 14.1959 26.2847 14.246C25.794 14.5507 25.2647 14.7696 24.7096 14.8976C24.1504 14.3256 23.391 14.0001 22.6059 14.0001C20.9487 14.0001 19.6005 15.4116 19.6005 17.1465C19.6005 17.2831 19.6088 17.419 19.6251 17.553C17.5687 17.364 15.6569 16.3058 14.3441 14.6198C14.2973 14.5597 14.2252 14.5273 14.1514 14.5335C14.0776 14.5396 14.0112 14.5832 13.9739 14.6502C13.7077 15.1285 13.5669 15.6756 13.5669 16.2322C13.5669 16.9904 13.8254 17.7097 14.2821 18.2717C14.1433 18.2214 14.0085 18.1585 13.8799 18.0837C13.8108 18.0435 13.7266 18.0441 13.658 18.0853C13.5893 18.1265 13.5463 18.2022 13.5445 18.285C13.5442 18.2989 13.5442 18.3129 13.5442 18.327C13.5442 19.4587 14.1259 20.4775 15.0154 21.0328C14.939 21.0248 14.8626 21.0132 14.7867 20.9981C14.7085 20.9824 14.6281 21.0111 14.5753 21.0736C14.5225 21.136 14.505 21.223 14.5294 21.3024C14.8586 22.3785 15.7062 23.17 16.7309 23.4113C15.881 23.9686 14.9091 24.2605 13.8888 24.2605C13.676 24.2605 13.4618 24.2474 13.2523 24.2215C13.1482 24.2085 13.0487 24.2729 13.0132 24.3765C12.9778 24.4802 13.0153 24.5958 13.1039 24.6552C14.4146 25.5351 15.9302 26.0001 17.4866 26.0001C20.5465 26.0001 22.4607 24.4895 23.5276 23.2223C24.858 21.6421 25.6211 19.5506 25.6211 17.484C25.6211 17.3977 25.6198 17.3105 25.6173 17.2236C26.1422 16.8096 26.5941 16.3085 26.9619 15.7326C27.0177 15.6451 27.0117 15.5295 26.947 15.449C26.8823 15.3684 26.7746 15.3424 26.6827 15.385Z" fill="#0C204D"/>
</svg>
