<svg class="social" width="40" height="40" viewBox="0 0 40 40" fill="#0C204D" xmlns="http://www.w3.org/2000/svg">
<rect width="40" height="40" rx="20" fill="#FAFAFB"/>
<path d="M25.6091 20.7343C25.3439 20.3843 25.4198 20.2286 25.6091 19.9157C25.6125 19.9121 27.8013 16.7507 28.0268 15.6786L28.0281 15.6779C28.1402 15.2871 28.0281 15 27.4862 15H25.6931C25.2366 15 25.0262 15.2464 24.9134 15.5221C24.9134 15.5221 24.0004 17.8064 22.7089 19.2871C22.292 19.715 22.0993 19.8521 21.8718 19.8521C21.7597 19.8521 21.5854 19.715 21.5854 19.3243V15.6779C21.5854 15.2093 21.4577 15 21.0798 15H18.2602C17.9739 15 17.8038 15.2186 17.8038 15.4221C17.8038 15.8664 18.4495 15.9686 18.5165 17.2186V19.9307C18.5165 20.525 18.4133 20.6343 18.1844 20.6343C17.5748 20.6343 16.0954 18.3407 15.2186 15.7157C15.0416 15.2064 14.8687 15.0007 14.4088 15.0007H12.615C12.1032 15.0007 12 15.2471 12 15.5229C12 16.01 12.6096 18.4321 14.8346 21.6321C16.3174 23.8164 18.4058 25 20.3055 25C21.4474 25 21.5868 24.7371 21.5868 24.285C21.5868 22.1979 21.4836 22.0007 22.0556 22.0007C22.3207 22.0007 22.7772 22.1379 23.8433 23.1914C25.0617 24.4407 25.2619 25 25.9439 25H27.737C28.2482 25 28.5072 24.7371 28.3582 24.2186C28.0172 23.1279 25.7129 20.8843 25.6091 20.7343Z" fill="#0C204D"/>
</svg>
