<svg width="125" height="255" viewBox="0 0 125 255" fill="none" xmlns="http://www.w3.org/2000/svg">
<circle cx="47.4998" cy="22.5" r="2.5" transform="rotate(-90 47.4998 22.5)" fill="#402985"/>
<circle cx="47.4998" cy="142.5" r="2.5" transform="rotate(-90 47.4998 142.5)" fill="#402985"/>
<circle cx="47.4998" cy="202.5" r="2.5" transform="rotate(-90 47.4998 202.5)" fill="#0067BB"/>
<circle cx="47.4998" cy="82.5" r="2.5" transform="rotate(-90 47.4998 82.5)" fill="#0067BB"/>
<circle cx="47.4998" cy="242.5" r="2.5" transform="rotate(-90 47.4998 242.5)" fill="#0067BB"/>
<circle cx="47.4998" cy="2.5" r="2.5" transform="rotate(-90 47.4998 2.5)" fill="#0067BB"/>
<circle cx="47.4998" cy="122.5" r="2.5" transform="rotate(-90 47.4998 122.5)" fill="#0067BB"/>
<circle cx="47.4998" cy="182.5" r="2.5" transform="rotate(-90 47.4998 182.5)" fill="#402985"/>
<circle cx="47.4998" cy="62.5" r="2.5" transform="rotate(-90 47.4998 62.5)" fill="#402985"/>
<circle cx="47.4998" cy="222.5" r="2.5" transform="rotate(-90 47.4998 222.5)" fill="#402985"/>
<circle cx="47.4998" cy="102.5" r="2.5" transform="rotate(-90 47.4998 102.5)" fill="#402985"/>
<circle cx="47.4998" cy="162.5" r="2.5" transform="rotate(-90 47.4998 162.5)" fill="#0067BB"/>
<circle cx="47.4998" cy="42.5" r="2.5" transform="rotate(-90 47.4998 42.5)" fill="#0067BB"/>
<circle cx="17.4998" cy="22.5" r="2.5" transform="rotate(-90 17.4998 22.5)" fill="#402985"/>
<circle cx="17.4998" cy="142.5" r="2.5" transform="rotate(-90 17.4998 142.5)" fill="#402985"/>
<circle cx="17.4998" cy="202.5" r="2.5" transform="rotate(-90 17.4998 202.5)" fill="#0067BB"/>
<circle cx="17.4998" cy="82.5" r="2.5" transform="rotate(-90 17.4998 82.5)" fill="#0067BB"/>
<circle cx="17.4998" cy="242.5" r="2.5" transform="rotate(-90 17.4998 242.5)" fill="#0067BB"/>
<circle cx="17.4998" cy="2.5" r="2.5" transform="rotate(-90 17.4998 2.5)" fill="#0067BB"/>
<circle cx="17.4998" cy="122.5" r="2.5" transform="rotate(-90 17.4998 122.5)" fill="#0067BB"/>
<circle cx="17.4998" cy="182.5" r="2.5" transform="rotate(-90 17.4998 182.5)" fill="#402985"/>
<circle cx="17.4998" cy="62.5" r="2.5" transform="rotate(-90 17.4998 62.5)" fill="#402985"/>
<circle cx="17.4998" cy="222.5" r="2.5" transform="rotate(-90 17.4998 222.5)" fill="#402985"/>
<circle cx="17.4998" cy="102.5" r="2.5" transform="rotate(-90 17.4998 102.5)" fill="#402985"/>
<circle cx="17.4998" cy="162.5" r="2.5" transform="rotate(-90 17.4998 162.5)" fill="#0067BB"/>
<circle cx="17.4998" cy="42.5" r="2.5" transform="rotate(-90 17.4998 42.5)" fill="#0067BB"/>
<circle cx="2.49982" cy="252.5" r="2.5" transform="rotate(-90 2.49982 252.5)" fill="#F4F4F4"/>
<circle cx="2.49982" cy="12.5" r="2.5" transform="rotate(-90 2.49982 12.5)" fill="#F4F4F4"/>
<circle cx="2.49982" cy="132.5" r="2.5" transform="rotate(-90 2.49982 132.5)" fill="#F4F4F4"/>
<circle cx="2.49982" cy="192.5" r="2.5" transform="rotate(-90 2.49982 192.5)" fill="#F4F4F4"/>
<circle cx="2.49982" cy="72.5" r="2.5" transform="rotate(-90 2.49982 72.5)" fill="#F4F4F4"/>
<circle cx="2.49982" cy="232.5" r="2.5" transform="rotate(-90 2.49982 232.5)" fill="#F4F4F4"/>
<circle cx="2.49982" cy="112.5" r="2.5" transform="rotate(-90 2.49982 112.5)" fill="#F4F4F4"/>
<circle cx="2.49982" cy="172.5" r="2.5" transform="rotate(-90 2.49982 172.5)" fill="#F4F4F4"/>
<circle cx="2.49982" cy="52.5" r="2.5" transform="rotate(-90 2.49982 52.5)" fill="#F4F4F4"/>
<circle cx="2.49982" cy="212.5" r="2.5" transform="rotate(-90 2.49982 212.5)" fill="#F4F4F4"/>
<circle cx="2.49982" cy="92.5" r="2.5" transform="rotate(-90 2.49982 92.5)" fill="#F4F4F4"/>
<circle cx="2.49982" cy="152.5" r="2.5" transform="rotate(-90 2.49982 152.5)" fill="#F4F4F4"/>
<circle cx="2.49982" cy="32.5" r="2.5" transform="rotate(-90 2.49982 32.5)" fill="#F4F4F4"/>
<circle cx="32.4998" cy="252.5" r="2.5" transform="rotate(-90 32.4998 252.5)" fill="#F4F4F4"/>
<circle cx="32.4998" cy="12.5" r="2.5" transform="rotate(-90 32.4998 12.5)" fill="#F4F4F4"/>
<circle cx="32.4998" cy="132.5" r="2.5" transform="rotate(-90 32.4998 132.5)" fill="#F4F4F4"/>
<circle cx="32.4998" cy="192.5" r="2.5" transform="rotate(-90 32.4998 192.5)" fill="#F4F4F4"/>
<circle cx="32.4998" cy="72.5" r="2.5" transform="rotate(-90 32.4998 72.5)" fill="#F4F4F4"/>
<circle cx="32.4998" cy="232.5" r="2.5" transform="rotate(-90 32.4998 232.5)" fill="#F4F4F4"/>
<circle cx="32.4998" cy="112.5" r="2.5" transform="rotate(-90 32.4998 112.5)" fill="#F4F4F4"/>
<circle cx="32.4998" cy="172.5" r="2.5" transform="rotate(-90 32.4998 172.5)" fill="#F4F4F4"/>
<circle cx="32.4998" cy="52.5" r="2.5" transform="rotate(-90 32.4998 52.5)" fill="#F4F4F4"/>
<circle cx="32.4998" cy="212.5" r="2.5" transform="rotate(-90 32.4998 212.5)" fill="#F4F4F4"/>
<circle cx="32.4998" cy="92.5" r="2.5" transform="rotate(-90 32.4998 92.5)" fill="#F4F4F4"/>
<circle cx="32.4998" cy="152.5" r="2.5" transform="rotate(-90 32.4998 152.5)" fill="#F4F4F4"/>
<circle cx="32.4998" cy="32.5" r="2.5" transform="rotate(-90 32.4998 32.5)" fill="#F4F4F4"/>
<circle cx="62.4998" cy="252.5" r="2.5" transform="rotate(-90 62.4998 252.5)" fill="#F4F4F4"/>
<circle cx="62.4998" cy="12.5" r="2.5" transform="rotate(-90 62.4998 12.5)" fill="#F4F4F4"/>
<circle cx="62.4998" cy="132.5" r="2.5" transform="rotate(-90 62.4998 132.5)" fill="#F4F4F4"/>
<circle cx="62.4998" cy="192.5" r="2.5" transform="rotate(-90 62.4998 192.5)" fill="#F4F4F4"/>
<circle cx="62.4998" cy="72.5" r="2.5" transform="rotate(-90 62.4998 72.5)" fill="#F4F4F4"/>
<circle cx="62.4998" cy="232.5" r="2.5" transform="rotate(-90 62.4998 232.5)" fill="#F4F4F4"/>
<circle cx="62.4998" cy="112.5" r="2.5" transform="rotate(-90 62.4998 112.5)" fill="#F4F4F4"/>
<circle cx="62.4998" cy="172.5" r="2.5" transform="rotate(-90 62.4998 172.5)" fill="#F4F4F4"/>
<circle cx="62.4998" cy="52.5" r="2.5" transform="rotate(-90 62.4998 52.5)" fill="#F4F4F4"/>
<circle cx="62.4998" cy="212.5" r="2.5" transform="rotate(-90 62.4998 212.5)" fill="#F4F4F4"/>
<circle cx="62.4998" cy="92.5" r="2.5" transform="rotate(-90 62.4998 92.5)" fill="#F4F4F4"/>
<circle cx="62.4998" cy="152.5" r="2.5" transform="rotate(-90 62.4998 152.5)" fill="#F4F4F4"/>
<circle cx="62.4998" cy="32.5" r="2.5" transform="rotate(-90 62.4998 32.5)" fill="#F4F4F4"/>
<circle cx="107.5" cy="22.5" r="2.5" transform="rotate(-90 107.5 22.5)" fill="#402985"/>
<circle cx="107.5" cy="142.5" r="2.5" transform="rotate(-90 107.5 142.5)" fill="#402985"/>
<circle cx="107.5" cy="202.5" r="2.5" transform="rotate(-90 107.5 202.5)" fill="#0067BB"/>
<circle cx="107.5" cy="82.5" r="2.5" transform="rotate(-90 107.5 82.5)" fill="#0067BB"/>
<circle cx="107.5" cy="242.5" r="2.5" transform="rotate(-90 107.5 242.5)" fill="#0067BB"/>
<circle cx="107.5" cy="2.5" r="2.5" transform="rotate(-90 107.5 2.5)" fill="#0067BB"/>
<circle cx="107.5" cy="122.5" r="2.5" transform="rotate(-90 107.5 122.5)" fill="#0067BB"/>
<circle cx="107.5" cy="182.5" r="2.5" transform="rotate(-90 107.5 182.5)" fill="#402985"/>
<circle cx="107.5" cy="62.5" r="2.5" transform="rotate(-90 107.5 62.5)" fill="#402985"/>
<circle cx="107.5" cy="222.5" r="2.5" transform="rotate(-90 107.5 222.5)" fill="#402985"/>
<circle cx="107.5" cy="102.5" r="2.5" transform="rotate(-90 107.5 102.5)" fill="#402985"/>
<circle cx="107.5" cy="162.5" r="2.5" transform="rotate(-90 107.5 162.5)" fill="#0067BB"/>
<circle cx="107.5" cy="42.5" r="2.5" transform="rotate(-90 107.5 42.5)" fill="#0067BB"/>
<circle cx="77.4998" cy="22.5" r="2.5" transform="rotate(-90 77.4998 22.5)" fill="#402985"/>
<circle cx="77.4998" cy="142.5" r="2.5" transform="rotate(-90 77.4998 142.5)" fill="#402985"/>
<circle cx="77.4998" cy="202.5" r="2.5" transform="rotate(-90 77.4998 202.5)" fill="#0067BB"/>
<circle cx="77.4998" cy="82.5" r="2.5" transform="rotate(-90 77.4998 82.5)" fill="#0067BB"/>
<circle cx="77.4998" cy="242.5" r="2.5" transform="rotate(-90 77.4998 242.5)" fill="#0067BB"/>
<circle cx="77.4998" cy="2.5" r="2.5" transform="rotate(-90 77.4998 2.5)" fill="#0067BB"/>
<circle cx="77.4998" cy="122.5" r="2.5" transform="rotate(-90 77.4998 122.5)" fill="#0067BB"/>
<circle cx="77.4998" cy="182.5" r="2.5" transform="rotate(-90 77.4998 182.5)" fill="#402985"/>
<circle cx="77.4998" cy="62.5" r="2.5" transform="rotate(-90 77.4998 62.5)" fill="#402985"/>
<circle cx="77.4998" cy="222.5" r="2.5" transform="rotate(-90 77.4998 222.5)" fill="#402985"/>
<circle cx="77.4998" cy="102.5" r="2.5" transform="rotate(-90 77.4998 102.5)" fill="#402985"/>
<circle cx="77.4998" cy="162.5" r="2.5" transform="rotate(-90 77.4998 162.5)" fill="#0067BB"/>
<circle cx="77.4998" cy="42.5" r="2.5" transform="rotate(-90 77.4998 42.5)" fill="#0067BB"/>
<circle cx="92.4998" cy="252.5" r="2.5" transform="rotate(-90 92.4998 252.5)" fill="#F4F4F4"/>
<circle cx="92.4998" cy="12.5" r="2.5" transform="rotate(-90 92.4998 12.5)" fill="#F4F4F4"/>
<circle cx="92.4998" cy="132.5" r="2.5" transform="rotate(-90 92.4998 132.5)" fill="#F4F4F4"/>
<circle cx="92.4998" cy="192.5" r="2.5" transform="rotate(-90 92.4998 192.5)" fill="#F4F4F4"/>
<circle cx="92.4998" cy="72.5" r="2.5" transform="rotate(-90 92.4998 72.5)" fill="#F4F4F4"/>
<circle cx="92.4998" cy="232.5" r="2.5" transform="rotate(-90 92.4998 232.5)" fill="#F4F4F4"/>
<circle cx="92.4998" cy="112.5" r="2.5" transform="rotate(-90 92.4998 112.5)" fill="#F4F4F4"/>
<circle cx="92.4998" cy="172.5" r="2.5" transform="rotate(-90 92.4998 172.5)" fill="#F4F4F4"/>
<circle cx="92.4998" cy="52.5" r="2.5" transform="rotate(-90 92.4998 52.5)" fill="#F4F4F4"/>
<circle cx="92.4998" cy="212.5" r="2.5" transform="rotate(-90 92.4998 212.5)" fill="#F4F4F4"/>
<circle cx="92.4998" cy="92.5" r="2.5" transform="rotate(-90 92.4998 92.5)" fill="#F4F4F4"/>
<circle cx="92.4998" cy="152.5" r="2.5" transform="rotate(-90 92.4998 152.5)" fill="#F4F4F4"/>
<circle cx="92.4998" cy="32.5" r="2.5" transform="rotate(-90 92.4998 32.5)" fill="#F4F4F4"/>
<circle cx="122.5" cy="252.5" r="2.5" transform="rotate(-90 122.5 252.5)" fill="#F4F4F4"/>
<circle cx="122.5" cy="12.5" r="2.5" transform="rotate(-90 122.5 12.5)" fill="#F4F4F4"/>
<circle cx="122.5" cy="132.5" r="2.5" transform="rotate(-90 122.5 132.5)" fill="#F4F4F4"/>
<circle cx="122.5" cy="192.5" r="2.5" transform="rotate(-90 122.5 192.5)" fill="#F4F4F4"/>
<circle cx="122.5" cy="72.5" r="2.5" transform="rotate(-90 122.5 72.5)" fill="#F4F4F4"/>
<circle cx="122.5" cy="232.5" r="2.5" transform="rotate(-90 122.5 232.5)" fill="#F4F4F4"/>
<circle cx="122.5" cy="112.5" r="2.5" transform="rotate(-90 122.5 112.5)" fill="#F4F4F4"/>
<circle cx="122.5" cy="172.5" r="2.5" transform="rotate(-90 122.5 172.5)" fill="#F4F4F4"/>
<circle cx="122.5" cy="52.5" r="2.5" transform="rotate(-90 122.5 52.5)" fill="#F4F4F4"/>
<circle cx="122.5" cy="212.5" r="2.5" transform="rotate(-90 122.5 212.5)" fill="#F4F4F4"/>
<circle cx="122.5" cy="92.5" r="2.5" transform="rotate(-90 122.5 92.5)" fill="#F4F4F4"/>
<circle cx="122.5" cy="152.5" r="2.5" transform="rotate(-90 122.5 152.5)" fill="#F4F4F4"/>
<circle cx="122.5" cy="32.5" r="2.5" transform="rotate(-90 122.5 32.5)" fill="#F4F4F4"/>
</svg>
