<svg width="40" height="20" viewBox="0 0 40 20" fill="white" xmlns="http://www.w3.org/2000/svg">
	<rect width="40" height="20" rx="4" fill="#0C204D"/>
	<path d="M13.4814 13.2861V15H7.80518V13.2861H13.4814ZM8.52295 4.33594V15H6.32568V4.33594H8.52295ZM12.7417 8.6792V10.3491H7.80518V8.6792H12.7417ZM13.4741 4.33594V6.05713H7.80518V4.33594H13.4741ZM23.4424 4.33594V15H21.2451L16.9604 7.85156V15H14.7632V4.33594H16.9604L21.2524 11.4917V4.33594H23.4424ZM33.8062 9.42627V13.6523C33.6401 13.8525 33.3838 14.0698 33.0371 14.3042C32.6904 14.5337 32.2437 14.7314 31.6968 14.8975C31.1499 15.0635 30.4883 15.1465 29.7119 15.1465C29.0234 15.1465 28.396 15.0342 27.8296 14.8096C27.2632 14.5801 26.7749 14.2456 26.3647 13.8062C25.9595 13.3667 25.647 12.8296 25.4272 12.1948C25.2075 11.5552 25.0977 10.8252 25.0977 10.0049V9.33838C25.0977 8.51807 25.2026 7.78809 25.4126 7.14844C25.6274 6.50879 25.9326 5.96924 26.3281 5.52979C26.7236 5.09033 27.1948 4.75586 27.7417 4.52637C28.2886 4.29688 28.8965 4.18213 29.5654 4.18213C30.4932 4.18213 31.2549 4.3335 31.8506 4.63623C32.4463 4.93408 32.9004 5.34912 33.2129 5.88135C33.5303 6.40869 33.7256 7.01416 33.7988 7.69775H31.6675C31.6138 7.33643 31.5112 7.02148 31.3599 6.75293C31.2085 6.48437 30.9912 6.27441 30.708 6.12305C30.4297 5.97168 30.0684 5.896 29.624 5.896C29.2578 5.896 28.9307 5.97168 28.6426 6.12305C28.3594 6.26953 28.1201 6.48682 27.9248 6.7749C27.7295 7.06299 27.5806 7.41943 27.478 7.84424C27.3755 8.26904 27.3242 8.76221 27.3242 9.32373V10.0049C27.3242 10.5615 27.3779 11.0547 27.4854 11.4844C27.5928 11.9092 27.7515 12.2681 27.9614 12.561C28.1763 12.8491 28.4399 13.0664 28.7524 13.2129C29.0649 13.3594 29.4287 13.4326 29.8438 13.4326C30.1904 13.4326 30.4785 13.4033 30.708 13.3447C30.9424 13.2861 31.1304 13.2153 31.272 13.1323C31.4185 13.0444 31.5308 12.9614 31.6089 12.8833V10.9937H29.6021V9.42627H33.8062Z" fill="white"/>
</svg>
