<svg width="2340" height="855" viewBox="0 0 2340 855" fill="none" xmlns="http://www.w3.org/2000/svg">
	<path d="M37.6297 297.86C60.3002 225.192 112.811 201.067 180.325 187.762C238.089 176.372 303.852 177.439 351.424 143.709C398.847 110.089 425.702 62.6491 483.208 52.2521C560.306 38.322 608.062 91.1717 618.033 151.253C631.875 234.558 570.609 292.174 498.543 303.509C438.899 312.913 375.44 321.561 332.347 371.172C292.664 416.864 278.933 500.334 212.396 517.632C136.938 537.266 -4.32012 432.248 37.6297 297.86Z" fill="#FAFAFB"/>
	<path d="M0 59.4268C-1.28304e-08 58.3509 0.0187072 57.275 0.0560913 56.2176C0.804016 34.4207 9.44232 16.4823 23.7461 7.00298C44.7249 -6.87283 79.166 -2.16098 108.821 39.6891C118.674 53.602 127.257 67.181 135.54 80.2962C163.156 123.983 187.014 161.715 242.509 188.52C260.87 197.387 283.27 204.436 306.96 211.894C370.401 231.854 442.313 254.486 464.563 321.694C486.177 386.9 439.826 473.605 387.641 526.548C347.627 567.137 307.297 586.411 279.755 578.1C261.992 572.739 250.437 556.47 245.426 529.72C240.583 503.879 242.509 479.43 244.379 455.778C247.632 414.651 250.699 375.788 217.566 335.96C193.727 307.281 164.409 281.106 136.063 255.784C96.5175 220.483 55.6443 183.975 26.9247 138.879C9.25534 111.164 2.90453e-07 83.7837 0 59.4268ZM469.181 357.108C469.181 344.938 467.498 333.122 463.796 321.936C441.677 255.117 369.99 232.559 306.736 212.654C283.008 205.178 260.59 198.129 242.172 189.244C186.472 162.345 162.558 124.521 134.866 80.7229C126.583 67.6076 118.001 54.0472 108.166 40.1528C78.8108 -1.23345 44.8557 -5.9824 24.2135 7.68936C-3.72086 26.1657 -11.5178 77.0128 27.6165 138.434C56.2801 183.419 97.1158 219.889 136.605 255.154C164.988 280.494 194.325 306.687 218.202 335.422C251.54 375.528 248.455 414.521 245.202 455.834C243.332 479.43 241.406 503.842 246.23 529.553C251.185 555.969 262.534 572.034 279.979 577.302C306.81 585.391 347.833 565.727 387.023 525.955C430.103 482.287 469.181 415.597 469.181 357.108Z" fill="#0067BB"/>
	<path d="M2325.69 585.596C2298.02 497.466 2233.94 468.209 2151.55 452.074C2081.06 438.259 2000.81 439.554 1942.75 398.647C1884.88 357.874 1852.11 300.34 1781.93 287.731C1687.85 270.837 1629.57 334.932 1617.4 407.797C1600.51 508.826 1675.27 578.7 1763.22 592.447C1836 603.851 1913.45 614.34 1966.03 674.507C2014.46 729.92 2031.22 831.15 2112.42 852.128C2204.5 875.94 2376.88 748.577 2325.69 585.596Z" fill="#FAFAFB"/>
	<path fill-rule="evenodd" clip-rule="evenodd" d="M2201.42 270.668C2273.52 286.898 2314.85 341.295 2330.97 399.111C2339.03 428.022 2340.76 457.751 2336.89 483.921C2333.02 510.106 2323.54 532.63 2309.27 547.236C2284.05 573.059 2250.76 578.214 2215.68 578.378C2204.69 578.43 2193.58 577.994 2182.51 577.559C2175.89 577.298 2169.28 577.039 2162.71 576.884C2145.22 576.472 2128.11 576.811 2112.28 579.933C2045.66 593.072 2004.33 644.668 1965.28 693.426C1964.05 694.958 1962.83 696.488 1961.6 698.013C1913.3 758.28 1828.81 783.943 1760.56 727.357L1759.84 728.233C1828.71 785.336 1913.9 759.331 1962.48 698.727C1963.68 697.235 1964.87 695.741 1966.07 694.244C2005.2 645.401 2046.29 594.106 2112.49 581.047C2134.07 576.793 2158.1 577.736 2182.43 578.692C2228.94 580.518 2276.52 582.387 2310.07 548.032C2368.04 488.706 2346.85 302.245 2201.67 269.56C2123.17 251.873 2073.26 287.595 2025.3 342.943C2014.36 355.563 2003.92 369.18 1993.45 382.858C1964.61 420.5 1935.42 458.608 1894.28 477.712C1875.56 486.411 1856.64 492.151 1838.25 497.729C1801.75 508.803 1767.35 519.238 1740.75 550.92C1687.13 614.797 1710.16 687.06 1759.84 728.233L1760.56 727.357C1735.89 706.915 1717.88 678.787 1712.67 647.901C1707.46 617.048 1715.01 583.348 1741.61 551.653C1761.42 528.059 1785.61 516.335 1811.92 507.263C1820.55 504.287 1829.44 501.591 1838.47 498.849C1856.91 493.256 1875.96 487.473 1894.76 478.743C1923.02 465.616 1945.64 443.612 1966.29 419.05C1975.93 407.582 1985.16 395.534 1994.34 383.557C1994.99 382.707 1995.64 381.857 1996.29 381.008C2006.12 368.186 2015.91 355.498 2026.15 343.689C2050.09 316.058 2074.44 293.426 2102.52 279.887C2130.56 266.366 2162.41 261.877 2201.42 270.668Z" fill="#0067BB"/>
</svg>
